<svg xmlns="http://www.w3.org/2000/svg" aria-hidden="true" style="position:absolute;width:0;height:0;overflow:hidden">
  <defs>
    <symbol id="icon-three-dots" viewBox="0 0 32 32">
      <path d="M3.87 19.729c-1.122 0-2.056-.355-2.804-1.066C.356 17.915 0 17.037 0 16.027c0-1.047.355-1.925 1.066-2.636.748-.748 1.682-1.122 2.804-1.122s2.038.374 2.748 1.122c.71.71 1.066 1.589 1.066 2.636 0 1.009-.355 1.888-1.066 2.636-.71.71-1.626 1.066-2.748 1.066zm12.158 0c-1.122 0-2.056-.355-2.804-1.066-.71-.748-1.066-1.626-1.066-2.636 0-1.047.355-1.925 1.066-2.636.748-.748 1.682-1.122 2.804-1.122s2.038.374 2.748 1.122c.71.71 1.066 1.589 1.066 2.636 0 1.009-.355 1.888-1.066 2.636-.71.71-1.626 1.066-2.748 1.066zm12.158 0c-1.122 0-2.056-.355-2.804-1.066-.71-.748-1.066-1.626-1.066-2.636 0-1.047.355-1.925 1.066-2.636.748-.748 1.683-1.122 2.804-1.122s2.037.374 2.748 1.122c.71.71 1.066 1.589 1.066 2.636 0 1.009-.355 1.888-1.066 2.636-.711.71-1.626 1.066-2.748 1.066z"/>
    </symbol>
    <symbol id="icon-arrow" viewBox="0 0 32 32">
      <path d="M14.268 16.947a1.334 1.334 0 0 1 0-1.894l6.12-6.107a1.334 1.334 0 1 0-1.88-1.894l-6.12 6.12a4.001 4.001 0 0 0 0 5.654l6.12 6.12a1.336 1.336 0 0 0 1.88-1.894l-6.12-6.107z"/>
    </symbol>
    <symbol id="icon-star" viewBox="0 0 32 32">
      <path d="M13.826 3.372c.684-2.106 3.663-2.106 4.348 0l1.932 5.945a2.285 2.285 0 0 0 2.174 1.579h6.251c2.214 0 3.135 2.833 1.344 4.135l-5.057 3.674a2.286 2.286 0 0 0-.83 2.556l1.931 5.945c.684 2.106-1.726 3.857-3.517 2.555l-5.057-3.674a2.286 2.286 0 0 0-2.687 0l-5.057 3.674c-1.791 1.302-4.202-.45-3.517-2.555l1.932-5.945a2.287 2.287 0 0 0-.83-2.556l-5.057-3.674c-1.791-1.302-.871-4.135 1.344-4.135h6.251c.99 0 1.868-.638 2.174-1.579l1.932-5.945z"/>
    </symbol>
    <symbol id="icon-purchase" viewBox="0 0 32 32">
      <path stroke-linecap="round" stroke-linejoin="round" stroke-width="2.667" d="M12 30a1.333 1.333 0 1 0 0-2.667A1.333 1.333 0 0 0 12 30zm14.667 0a1.333 1.333 0 1 0 0-2.667 1.333 1.333 0 0 0 0 2.667z"/>
      <path stroke-linecap="round" stroke-linejoin="round" stroke-width="2.4" d="M1.333 2h5.333l3.573 17.853A2.671 2.671 0 0 0 12.905 22h12.96a2.667 2.667 0 0 0 2.666-2.147l2.133-11.187H7.997"/>
    </symbol>
    <symbol id="icon-menu" viewBox="0 0 32 32">
      <path stroke-linecap="round" stroke-linejoin="round" stroke-width="1.882" d="M27.294 13.49H4.706m22.588-5.019H4.706M27.294 18.51H4.706m22.588 5.019H4.706"/>
    </symbol>
    <symbol id="icon-ellipse" viewBox="0 0 32 32">
      <path d="M22.016 16c0 3.323-2.693 6.016-6.016 6.016S9.984 19.323 9.984 16 12.677 9.984 16 9.984s6.016 2.693 6.016 6.016z"/>
    </symbol>
    <symbol id="icon-favorites" viewBox="0 0 37 32">
      <path fill="#9bb537" d="M8.095 13.011h21.099v16.176H8.095V13.011z" style="fill:var(--color1, #9bb537)"/>
      <path fill="#9bb537" d="M16.535 11.78a7.56 7.56 0 1 1-15.12 0 7.56 7.56 0 0 1 15.12 0z" style="fill:var(--color1, #9bb537)"/>
      <path fill="#9bb537" d="M26.029 8.967a7.56 7.56 0 1 1-15.12 0 7.56 7.56 0 1 1 15.12 0z" style="fill:var(--color1, #9bb537)"/>
      <path fill="#9bb537" d="M35.524 11.78a7.56 7.56 0 1 1-15.12 0 7.56 7.56 0 0 1 15.12 0z" style="fill:var(--color1, #9bb537)"/>
      <path fill="#f8f8f8" d="M8.095 28.132h21.099v1.857c0 .334-.295.605-.659.605H8.755c-.364 0-.659-.271-.659-.605v-1.857zm6.33-17.276c0-.557.394-1.009.879-1.009s.879.452.879 1.009v4.662c0 .557-.394 1.009-.879 1.009s-.879-.452-.879-1.009v-4.662zm2.813 0c0-.557.551-1.009 1.231-1.009s1.231.452 1.231 1.009v4.662c0 .557-.551 1.009-1.231 1.009s-1.231-.452-1.231-1.009v-4.662zm3.516 0c0-.557.394-1.009.879-1.009s.879.452.879 1.009v4.662c0 .557-.394 1.009-.879 1.009s-.879-.452-.879-1.009v-4.662z" style="fill:var(--color2, #f8f8f8)"/>
      <path fill="#050505" d="M27.121 4.262c.263-.027.53-.041.801-.041 3.388 0 6.258 2.2 7.24 5.241-.263.027-.53.041-.801.041a7.6 7.6 0 0 1-7.24-5.241z" style="fill:var(--color3, #050505)"/>
    </symbol>
    <symbol id="icon-x" viewBox="0 0 32 32">
      <path stroke-linecap="round" stroke-linejoin="round" stroke-width="2.667" d="M24 8 8 24M8 8l16 16"/>
    </symbol>
    <symbol id="icon-heart" viewBox="0 0 33 32">
      <path stroke-linecap="round" stroke-linejoin="round" stroke-width="2.207" d="M16.54 9.141c-2.022-2.364-5.395-3-7.929-.835s-2.891 5.785-.901 8.345c1.654 2.129 6.661 6.619 8.302 8.072.183.163.275.244.382.276a.508.508 0 0 0 .289 0c.107-.032.199-.113.382-.276 1.641-1.453 6.648-5.943 8.302-8.072 1.99-2.561 1.677-6.203-.901-8.345s-5.906-1.529-7.928.835z"/>
    </symbol>
  </defs>
</svg>
