<svg xmlns="http://www.w3.org/2000/svg" aria-hidden="true" style="position:absolute;width:0;height:0;overflow:hidden">
  <defs>
    <symbol id="icon-three-dots" viewBox="0 0 32 32">
      <path d="M3.87 19.729c-1.122 0-2.056-.355-2.804-1.066C.356 17.915 0 17.037 0 16.027c0-1.047.355-1.925 1.066-2.636.748-.748 1.682-1.122 2.804-1.122s2.038.374 2.748 1.122c.71.71 1.066 1.589 1.066 2.636 0 1.009-.355 1.888-1.066 2.636-.71.71-1.626 1.066-2.748 1.066zm12.158 0c-1.122 0-2.056-.355-2.804-1.066-.71-.748-1.066-1.626-1.066-2.636 0-1.047.355-1.925 1.066-2.636.748-.748 1.682-1.122 2.804-1.122s2.038.374 2.748 1.122c.71.71 1.066 1.589 1.066 2.636 0 1.009-.355 1.888-1.066 2.636-.71.71-1.626 1.066-2.748 1.066zm12.158 0c-1.122 0-2.056-.355-2.804-1.066-.71-.748-1.066-1.626-1.066-2.636 0-1.047.355-1.925 1.066-2.636.748-.748 1.683-1.122 2.804-1.122s2.037.374 2.748 1.122c.71.71 1.066 1.589 1.066 2.636 0 1.009-.355 1.888-1.066 2.636-.711.71-1.626 1.066-2.748 1.066z"/>
    </symbol>
    <symbol id="icon-arrow" viewBox="0 0 32 32">
      <path d="M14.268 16.947a1.334 1.334 0 0 1 0-1.894l6.12-6.107a1.334 1.334 0 1 0-1.88-1.894l-6.12 6.12a4.001 4.001 0 0 0 0 5.654l6.12 6.12a1.336 1.336 0 0 0 1.88-1.894l-6.12-6.107z"/>
    </symbol>
    <symbol id="icon-star" viewBox="0 0 32 32">
      <path d="M13.826 3.372c.684-2.106 3.663-2.106 4.348 0l1.932 5.945a2.285 2.285 0 0 0 2.174 1.579h6.251c2.214 0 3.135 2.833 1.344 4.135l-5.057 3.674a2.286 2.286 0 0 0-.83 2.556l1.931 5.945c.684 2.106-1.726 3.857-3.517 2.555l-5.057-3.674a2.286 2.286 0 0 0-2.687 0l-5.057 3.674c-1.791 1.302-4.202-.45-3.517-2.555l1.932-5.945a2.287 2.287 0 0 0-.83-2.556l-5.057-3.674c-1.791-1.302-.871-4.135 1.344-4.135h6.251c.99 0 1.868-.638 2.174-1.579l1.932-5.945z"/>
    </symbol>
    <symbol id="icon-purchase" viewBox="0 0 32 32">
      <path stroke-linecap="round" stroke-linejoin="round" stroke-width="2.667" d="M12 30a1.333 1.333 0 1 0 0-2.667A1.333 1.333 0 0 0 12 30zm14.667 0a1.333 1.333 0 1 0 0-2.667 1.333 1.333 0 0 0 0 2.667z"/>
      <path stroke-linecap="round" stroke-linejoin="round" stroke-width="2.4" d="M1.333 2h5.333l3.573 17.853A2.671 2.671 0 0 0 12.905 22h12.96a2.667 2.667 0 0 0 2.666-2.147l2.133-11.187H7.997"/>
    </symbol>
    <symbol id="icon-menu" viewBox="0 0 32 32">
      <path stroke-linecap="round" stroke-linejoin="round" stroke-width="1.882" d="M27.294 13.49H4.706m22.588-5.019H4.706M27.294 18.51H4.706m22.588 5.019H4.706"/>
    </symbol>
    <symbol id="icon-ellipse" viewBox="0 0 32 32">
      <path d="M22.016 16c0 3.323-2.693 6.016-6.016 6.016S9.984 19.323 9.984 16 12.677 9.984 16 9.984s6.016 2.693 6.016 6.016z"/>
    </symbol>
  </defs>
</svg>
